# xmcd
#
# Track frame offsets:
#	150
#	16712
#	30340
#	47847
#	63461
#	80195
#	97336
#	112681
#	127181
#	142431
#	159384
#	177375
#	192907
#	205801
#	223687
#	236450
#	253238
#	267547
#	285110
#
# Disc length: 3994 seconds
# Revision: 1
# Processed by: cddbd v1.5.2PL0 Copyright (c) Steve Scherf et al.
# Submitted via: dBpowerAMP V12.0
#
DISCID=1d0f9813
DTITLE=Various Artist - Country Radio October 2009
DYEAR=2009
DGENRE=Country
TTITLE0=Carrie Underwood - Cowboy Casanova
TTITLE1=Brooks and Dunn Feat Billy Gibbons - Honky Tonk Stomp
TTITLE2=Lady Antebellum - Need You Now
TTITLE3=Jessie Farrell - You Make Me Feel
TTITLE4=One More Girl - When It Ain't Rainin
TTITLE5=Tim McGraw - Southern Voice
TTITLE6=Kellie Pickler - Didn't You Know How Much I Loved You
TTITLE7=Jaydee Bixby - My So Called Life
TTITLE8=Phil Vassar - Everywhere I Go
TTITLE9=Miranda Lambert - White Liar
TTITLE10=Road Hammers The - Goodbye Dust
TTITLE11=Darius Rucker - History In The Making
TTITLE12=Steve Azar - Moo La Moo
TTITLE13=Mallory Hope - Love Lives On
TTITLE14=Jypsi - Mister Officer
TTITLE15=Tara Oram - Living The Dream
TTITLE16=Josh Turner - Why Don't We Just Dance
TTITLE17=Bomshel - 19 and Crazy
TTITLE18=Codie Prevost - Breathtaking
EXTD=
EXTT0=
EXTT1=
EXTT2=
EXTT3=
EXTT4=
EXTT5=
EXTT6=
EXTT7=
EXTT8=
EXTT9=
EXTT10=
EXTT11=
EXTT12=
EXTT13=
EXTT14=
EXTT15=
EXTT16=
EXTT17=
EXTT18=
PLAYORDER=
